<svg width="109" height="15" viewBox="0 0 109 15" fill="none" xmlns="http://www.w3.org/2000/svg">
<path d="M4.375 10L4.5475 11.0363C4.71375 12.0338 4.7975 12.5325 5.14687 12.8287C5.49687 13.125 6.0025 13.125 7.01375 13.125H7.98625C8.9975 13.125 9.50375 13.125 9.85313 12.8287C10.2025 12.5325 10.2863 12.0338 10.4525 11.0363L10.625 10" stroke="#FF4F8B" stroke-linecap="round" stroke-linejoin="round"/>
<path d="M8.4375 2.8125C8.75 2.1875 9.375 1.875 10 1.875" stroke="#FF4F8B" stroke-linecap="round"/>
<path d="M7.5 5C8.19036 5 8.75 4.44036 8.75 3.75C8.75 3.05964 8.19036 2.5 7.5 2.5C6.80964 2.5 6.25 3.05964 6.25 3.75C6.25 4.44036 6.80964 5 7.5 5Z" stroke="#FF4F8B" stroke-linecap="round" stroke-linejoin="round"/>
<path fill-rule="evenodd" clip-rule="evenodd" d="M6.25001 4.70938C5.78671 4.97661 5.42131 5.38538 5.20751 5.87563C5.15989 5.98483 5.08206 6.07815 4.98318 6.14459C4.88429 6.21102 4.76848 6.24782 4.64939 6.25063C4.40509 6.25659 4.16558 6.31976 3.95013 6.43507C3.73467 6.55039 3.54927 6.71463 3.40881 6.91461C3.26835 7.11458 3.17676 7.34472 3.14139 7.58652C3.10602 7.82832 3.12786 8.07505 3.20515 8.30688C3.28244 8.5387 3.41304 8.74917 3.58644 8.92137C3.75984 9.09356 3.97121 9.22269 4.20357 9.29836C4.43593 9.37404 4.68281 9.39416 4.92435 9.3571C5.1659 9.32005 5.39539 9.22686 5.59439 9.08501C5.69145 9.01558 5.80635 8.9754 5.92552 8.96919C6.04469 8.96299 6.16315 8.99103 6.26689 9.05001C6.63001 9.25626 7.05001 9.37501 7.50001 9.37501C7.95001 9.37501 8.37001 9.25626 8.73314 9.05001C8.83688 8.99103 8.95533 8.96299 9.0745 8.96919C9.19368 8.9754 9.30858 9.01558 9.40564 9.08501C9.60463 9.22686 9.83412 9.32005 10.0757 9.3571C10.3172 9.39416 10.5641 9.37404 10.7965 9.29836C11.0288 9.22269 11.2402 9.09356 11.4136 8.92137C11.587 8.74917 11.7176 8.5387 11.7949 8.30688C11.8722 8.07505 11.894 7.82832 11.8586 7.58652C11.8233 7.34472 11.7317 7.11458 11.5912 6.91461C11.4508 6.71463 11.2654 6.55039 11.0499 6.43507C10.8344 6.31976 10.5949 6.25659 10.3506 6.25063C10.2315 6.24782 10.1157 6.21102 10.0168 6.14459C9.91797 6.07815 9.84013 5.98483 9.79251 5.87563C9.57871 5.38538 9.21332 4.97661 8.75001 4.70938V3.33813C9.60592 3.64215 10.3229 4.24553 10.7688 5.03688C11.1704 5.10291 11.5529 5.2553 11.89 5.48355C12.227 5.71179 12.5104 6.01046 12.7208 6.35892C12.9311 6.70738 13.0634 7.09734 13.1084 7.50188C13.1533 7.90642 13.11 8.3159 12.9813 8.70206C12.8527 9.08822 12.6417 9.44186 12.3631 9.73856C12.0844 10.0353 11.7447 10.268 11.3674 10.4206C10.9901 10.5732 10.5841 10.6422 10.1775 10.6226C9.77096 10.6031 9.37348 10.4956 9.01251 10.3075C8.53586 10.5172 8.02076 10.6253 7.50001 10.625C6.97923 10.6251 6.46412 10.5168 5.98751 10.3069C5.62664 10.4949 5.22926 10.6024 4.8228 10.622C4.41634 10.6415 4.01048 10.5726 3.63324 10.42C3.256 10.2674 2.91636 10.0348 2.63777 9.7382C2.35918 9.44159 2.14827 9.08805 2.0196 8.702C1.89093 8.31595 1.84757 7.90658 1.89251 7.50214C1.93744 7.0977 2.0696 6.70782 2.27987 6.35943C2.49014 6.01104 2.77351 5.71242 3.11041 5.48419C3.44731 5.25597 3.82973 5.10357 4.23126 5.03751C4.67696 4.24592 5.39401 3.64231 6.25001 3.33813V4.70938Z" fill="#FF4F8B"/>
<path d="M27.384 3.744C27.8 3.744 28.18 3.832 28.524 4.008C28.876 4.176 29.152 4.416 29.352 4.728C29.56 5.04 29.664 5.388 29.664 5.772C29.664 6.788 29.204 7.428 28.284 7.692V7.74C29.332 7.98 29.856 8.668 29.856 9.804C29.856 10.236 29.748 10.62 29.532 10.956C29.324 11.284 29.036 11.54 28.668 11.724C28.3 11.908 27.896 12 27.456 12H21.888V3.744H27.384ZM24.54 6.96H26.364C26.54 6.96 26.684 6.9 26.796 6.78C26.916 6.652 26.976 6.496 26.976 6.312V6.192C26.976 6.016 26.916 5.868 26.796 5.748C26.676 5.62 26.532 5.556 26.364 5.556H24.54V6.96ZM24.54 10.08H26.556C26.732 10.08 26.876 10.02 26.988 9.9C27.108 9.772 27.168 9.616 27.168 9.432V9.312C27.168 9.128 27.108 8.976 26.988 8.856C26.876 8.728 26.732 8.664 26.556 8.664H24.54V10.08ZM35.3318 3.6C36.7558 3.6 37.8558 3.964 38.6318 4.692C39.4078 5.42 39.7958 6.48 39.7958 7.872C39.7958 9.264 39.4078 10.324 38.6318 11.052C37.8558 11.78 36.7558 12.144 35.3318 12.144C33.9078 12.144 32.8078 11.784 32.0318 11.064C31.2638 10.336 30.8798 9.272 30.8798 7.872C30.8798 6.472 31.2638 5.412 32.0318 4.692C32.8078 3.964 33.9078 3.6 35.3318 3.6ZM35.3318 5.58C34.7638 5.58 34.3318 5.752 34.0358 6.096C33.7398 6.44 33.5918 6.904 33.5918 7.488V8.256C33.5918 8.84 33.7398 9.304 34.0358 9.648C34.3318 9.992 34.7638 10.164 35.3318 10.164C35.8998 10.164 36.3318 9.992 36.6278 9.648C36.9318 9.304 37.0838 8.84 37.0838 8.256V7.488C37.0838 6.904 36.9318 6.44 36.6278 6.096C36.3318 5.752 35.8998 5.58 35.3318 5.58ZM41.2239 3.744H43.8759V9.888H48.1119V12H41.2239V3.744ZM53.1326 3.6C54.5566 3.6 55.6566 3.964 56.4326 4.692C57.2086 5.42 57.5966 6.48 57.5966 7.872C57.5966 9.264 57.2086 10.324 56.4326 11.052C55.6566 11.78 54.5566 12.144 53.1326 12.144C51.7086 12.144 50.6086 11.784 49.8326 11.064C49.0646 10.336 48.6806 9.272 48.6806 7.872C48.6806 6.472 49.0646 5.412 49.8326 4.692C50.6086 3.964 51.7086 3.6 53.1326 3.6ZM53.1326 5.58C52.5646 5.58 52.1326 5.752 51.8366 6.096C51.5406 6.44 51.3926 6.904 51.3926 7.488V8.256C51.3926 8.84 51.5406 9.304 51.8366 9.648C52.1326 9.992 52.5646 10.164 53.1326 10.164C53.7006 10.164 54.1326 9.992 54.4286 9.648C54.7326 9.304 54.8846 8.84 54.8846 8.256V7.488C54.8846 6.904 54.7326 6.44 54.4286 6.096C54.1326 5.752 53.7006 5.58 53.1326 5.58ZM62.4927 3.6C63.5487 3.6 64.4167 3.816 65.0967 4.248C65.7767 4.672 66.1247 5.304 66.1407 6.144V6.288H63.6567V6.24C63.6567 6 63.5687 5.8 63.3927 5.64C63.2167 5.48 62.9487 5.4 62.5887 5.4C62.2367 5.4 61.9647 5.452 61.7727 5.556C61.5887 5.66 61.4967 5.788 61.4967 5.94C61.4967 6.156 61.6247 6.316 61.8807 6.42C62.1367 6.524 62.5487 6.632 63.1167 6.744C63.7807 6.88 64.3247 7.024 64.7487 7.176C65.1807 7.32 65.5567 7.56 65.8767 7.896C66.1967 8.232 66.3607 8.688 66.3687 9.264C66.3687 10.24 66.0367 10.964 65.3727 11.436C64.7167 11.908 63.8367 12.144 62.7327 12.144C61.4447 12.144 60.4407 11.928 59.7207 11.496C59.0087 11.064 58.6527 10.3 58.6527 9.204H61.1607C61.1607 9.62 61.2687 9.9 61.4847 10.044C61.7007 10.18 62.0367 10.248 62.4927 10.248C62.8287 10.248 63.1047 10.212 63.3207 10.14C63.5447 10.068 63.6567 9.92 63.6567 9.696C63.6567 9.496 63.5327 9.348 63.2847 9.252C63.0447 9.148 62.6487 9.04 62.0967 8.928C61.4247 8.784 60.8687 8.636 60.4287 8.484C59.9887 8.324 59.6047 8.064 59.2767 7.704C58.9487 7.344 58.7847 6.856 58.7847 6.24C58.7847 5.336 59.1327 4.672 59.8287 4.248C60.5327 3.816 61.4207 3.6 62.4927 3.6ZM75.797 3.6C76.613 3.6 77.321 3.7 77.921 3.9C78.521 4.1 78.981 4.372 79.301 4.716C79.621 5.06 79.781 5.44 79.781 5.856V6.156H77.657C77.657 5.908 77.509 5.704 77.213 5.544C76.925 5.376 76.505 5.292 75.953 5.292C75.441 5.292 75.049 5.392 74.777 5.592C74.513 5.784 74.381 6.02 74.381 6.3C74.381 6.548 74.461 6.736 74.621 6.864C74.789 6.992 74.993 7.056 75.233 7.056H76.481V8.532H74.969C74.721 8.532 74.517 8.608 74.357 8.76C74.205 8.904 74.129 9.116 74.129 9.396C74.129 9.724 74.265 9.984 74.537 10.176C74.817 10.36 75.257 10.452 75.857 10.452C77.057 10.452 77.657 10.096 77.657 9.384V7.056H81.449V8.532H79.805V9.336C79.805 10.232 79.485 10.924 78.845 11.412C78.213 11.9 77.221 12.144 75.869 12.144C74.477 12.144 73.433 11.92 72.737 11.472C72.041 11.024 71.693 10.432 71.693 9.696C71.693 9.216 71.817 8.804 72.065 8.46C72.321 8.108 72.677 7.86 73.133 7.716V7.668C72.789 7.54 72.501 7.32 72.269 7.008C72.045 6.696 71.933 6.348 71.933 5.964C71.933 5.532 72.077 5.136 72.365 4.776C72.661 4.416 73.101 4.132 73.685 3.924C74.269 3.708 74.973 3.6 75.797 3.6ZM90.2771 3.6C91.5011 3.6 92.4691 3.908 93.1811 4.524C93.8931 5.132 94.2491 6.004 94.2491 7.14H91.7171C91.7171 6.66 91.5891 6.28 91.3331 6C91.0851 5.72 90.7291 5.58 90.2651 5.58C89.7291 5.58 89.3331 5.748 89.0771 6.084C88.8291 6.42 88.7051 6.888 88.7051 7.488V8.256C88.7051 8.848 88.8291 9.316 89.0771 9.66C89.3331 9.996 89.7211 10.164 90.2411 10.164C90.7531 10.164 91.1411 10.032 91.4051 9.768C91.6691 9.504 91.8011 9.132 91.8011 8.652H94.2491C94.2491 9.78 93.9011 10.644 93.2051 11.244C92.5171 11.844 91.5411 12.144 90.2771 12.144C88.8691 12.144 87.8011 11.784 87.0731 11.064C86.3531 10.344 85.9931 9.28 85.9931 7.872C85.9931 6.464 86.3531 5.4 87.0731 4.68C87.8011 3.96 88.8691 3.6 90.2771 3.6ZM95.801 12V3.744H98.453V12H95.801ZM105.877 12L105.529 10.836H102.637L102.289 12H99.577L102.589 3.744H105.673L108.685 12H105.877ZM103.189 8.988H104.977L104.113 6.048H104.065L103.189 8.988Z" fill="white"/>
</svg>
